<svg height="0" width="0" style="display: none;" >
  <defs>
  <linearGradient id="map-bg-gradient">
      <stop offset="5%" stop-color="#F60" />
      <stop offset="95%" stop-color="#FF6" />
    </linearGradient>
	<symbol id="dial-a-ride-svg" viewBox="223 29 37 22" class="none">
		<path fill="#010101" d="M233.569,37.138h-8.168c0.154,0.732,0.527,1.314,1.218,1.56h5.841
			C233.092,38.365,233.376,37.77,233.569,37.138z"/>
		<path fill="#010101" d="M251.823,38.699h5.842c0.691-0.245,1.063-0.828,1.217-1.56h-8.168
			C250.907,37.77,251.191,38.365,251.823,38.699z"/>
		<path fill="#010101" d="M247.636,36.04v-1.716c0.948,0.142,1.745,0.329,2.107,0.575c0.286,0.194,0.458,0.508,0.587,0.877h8.62
			c-0.115-1.557-0.778-3.265-1.366-3.958c-2.53-2.985-15.443-2.721-15.443-2.721s-12.912-0.265-15.443,2.721
			c-0.587,0.692-1.25,2.401-1.365,3.958h8.62c0.13-0.369,0.301-0.684,0.588-0.878c0.361-0.245,1.159-0.432,2.107-0.575v1.716
			l-2.307,2.636l-3.36,8.281v1.68v0.987c0,0.53,0.43,0.96,0.96,0.96h10.201h10.202c0.53,0,0.96-0.429,0.96-0.96v-0.987v-1.68
			l-3.361-8.281L247.636,36.04z M245.843,34.115v1.661h-7.404v-1.661C240.322,33.944,243.961,33.944,245.843,34.115z
			 M242.142,46.87c-2.489,0-4.508-2.018-4.508-4.507c0-2.49,2.018-4.508,4.508-4.508s4.508,2.018,4.508,4.508
			C246.65,44.852,244.631,46.87,242.142,46.87z"/>
	</symbol>
	<symbol id="commuter-svg" viewBox="126 33 60 40" class="none">
			<path fill="#231F20" d="M173.391,38.753l-34.7-0.001c0.371,0.88,0.568,1.826,0.568,2.793c0,0.98-0.197,1.925-0.561,2.794
				l34.691,0c-0.372-0.881-0.57-1.828-0.57-2.794C172.819,40.576,173.021,39.631,173.391,38.753z"/>
			<path fill="#231F20" d="M175.612,41.546c0,0.875,0.257,1.689,0.698,2.376c0.136,0.212,0.29,0.412,0.458,0.597
				c0.641,0.705,1.502,1.202,2.476,1.38c0.259,0.047,0.524,0.075,0.796,0.075c0.85,0,1.642-0.245,2.316-0.661
				c1.265-0.781,2.113-2.176,2.113-3.768c0-0.875-0.256-1.691-0.697-2.377c-0.361-0.563-0.846-1.039-1.416-1.391
				c-0.675-0.417-1.467-0.661-2.316-0.661c-0.272,0-0.537,0.029-0.796,0.076c-0.974,0.178-1.836,0.675-2.476,1.38
				C176.053,39.359,175.612,40.4,175.612,41.546z"/>
			<path fill="#231F20" d="M135.457,44.338c0.626-0.762,1.009-1.732,1.009-2.793c0-0.875-0.256-1.691-0.697-2.377
				c-0.093-0.145-0.194-0.283-0.303-0.415c-0.314-0.383-0.69-0.714-1.113-0.975c-0.675-0.417-1.467-0.661-2.317-0.661
				c-0.272,0-0.538,0.028-0.796,0.076c-0.974,0.178-1.836,0.675-2.476,1.38c-0.716,0.787-1.156,1.828-1.156,2.974
				c0,0.875,0.257,1.69,0.698,2.376c0.136,0.212,0.29,0.412,0.458,0.597c0.64,0.704,1.502,1.202,2.476,1.38
				c0.259,0.047,0.524,0.075,0.796,0.075c0.85,0,1.642-0.245,2.317-0.661C134.775,45.053,135.144,44.719,135.457,44.338z"/>
		</symbol> 
		
		<symbol id="local-svg" viewBox="27 30 66 24" class="none">
			<path fill="#231F20" d="M73.143,38.662l8.302,6.539c0.229-0.832,0.618-1.613,1.158-2.299c0.548-0.695,1.215-1.256,1.959-1.669
				L76.266,34.7c-0.228,0.834-0.617,1.616-1.157,2.301C74.568,37.688,73.896,38.247,73.143,38.662z"/>
			<path fill="#231F20" d="M73.127,35.44c0.489-0.621,0.762-1.342,0.833-2.076c0.022-0.226,0.025-0.454,0.009-0.68
				c-0.061-0.858-0.394-1.692-0.986-2.363c-0.157-0.178-0.33-0.346-0.523-0.498c-0.603-0.475-1.302-0.744-2.013-0.826
				c-1.334-0.153-2.715,0.363-3.605,1.493c-0.489,0.621-0.763,1.343-0.834,2.076c-0.058,0.601,0.02,1.21,0.228,1.778
				c0.246,0.673,0.671,1.289,1.274,1.764c0.193,0.152,0.397,0.28,0.607,0.391c0.791,0.418,1.68,0.547,2.528,0.405
				C71.593,36.745,72.487,36.252,73.127,35.44z"/>
			<path fill="#231F20" d="M86.861,43.045c-0.87,0.191-1.684,0.665-2.277,1.418c-0.489,0.621-0.763,1.343-0.834,2.076
				c-0.015,0.154-0.02,0.309-0.017,0.464c0.008,0.447,0.091,0.892,0.245,1.314c0.246,0.673,0.671,1.289,1.274,1.764
				c0.193,0.152,0.397,0.28,0.607,0.391c0.791,0.418,1.68,0.547,2.528,0.405c0.948-0.159,1.842-0.651,2.482-1.464
				c0.489-0.621,0.762-1.343,0.833-2.076c0.022-0.226,0.025-0.454,0.009-0.68c-0.061-0.858-0.394-1.692-0.986-2.363
				c-0.157-0.178-0.33-0.346-0.523-0.498c-0.603-0.475-1.302-0.744-2.013-0.826C87.745,42.919,87.296,42.949,86.861,43.045z"/>
			<path fill="#231F20" d="M37.249,38.58l8.302,6.539c0.229-0.832,0.618-1.613,1.158-2.299c0.548-0.695,1.215-1.256,1.959-1.669
				l-8.296-6.534c-0.228,0.834-0.617,1.616-1.157,2.301C38.674,37.606,38.003,38.165,37.249,38.58z"/>
			<path fill="#231F20" d="M37.234,35.357c0.489-0.621,0.762-1.342,0.833-2.076c0.022-0.226,0.025-0.454,0.009-0.68
				c-0.061-0.858-0.394-1.692-0.986-2.363c-0.157-0.178-0.33-0.346-0.523-0.498c-0.603-0.475-1.302-0.744-2.013-0.826
				c-1.334-0.153-2.715,0.363-3.605,1.493c-0.489,0.621-0.763,1.343-0.834,2.076c-0.058,0.601,0.02,1.21,0.228,1.778
				c0.246,0.673,0.671,1.289,1.274,1.764c0.193,0.152,0.397,0.28,0.607,0.391c0.791,0.418,1.68,0.547,2.528,0.405
				C35.699,36.662,36.594,36.17,37.234,35.357z"/>
			<path fill="#231F20" d="M50.968,42.962c-0.87,0.191-1.684,0.665-2.277,1.418c-0.489,0.621-0.763,1.343-0.834,2.076
				c-0.015,0.154-0.02,0.309-0.017,0.464c0.008,0.447,0.091,0.892,0.245,1.314c0.246,0.673,0.671,1.289,1.274,1.764
				c0.193,0.152,0.397,0.28,0.607,0.391c0.791,0.418,1.68,0.547,2.528,0.405c0.948-0.159,1.842-0.651,2.482-1.464
				c0.489-0.621,0.762-1.343,0.833-2.076c0.022-0.226,0.025-0.454,0.009-0.68c-0.061-0.858-0.394-1.692-0.986-2.363
				c-0.157-0.178-0.33-0.346-0.523-0.498c-0.603-0.475-1.302-0.744-2.013-0.826C51.851,42.837,51.403,42.867,50.968,42.962z"/>
			<path fill="#231F20" d="M58.768,45.218l8.271-6.578c-0.757-0.414-1.428-0.972-1.972-1.655c-0.551-0.693-0.943-1.471-1.174-2.29
				l-8.264,6.574c0.759,0.414,1.431,0.972,1.974,1.654C58.148,43.607,58.537,44.389,58.768,45.218z"/>
		</symbol>
		
		<symbol id="how-to-ride-svg" class="none" viewBox="308 24 16 34">
			<circle fill="#010101" cx="316.917" cy="49.833" r="2.667"/>
			<path fill="#010101" d="M314.75,44c0,0,2.104-1.104,4.083,0c-0.042-0.604-0.103-3.761,3.083-5.833
				c5.125-3.333,2.333-10.833-1.625-11.708c-4.888-1.081-6.625,0.292-8.792,1.792l1.604,2.771c0,0,1.062-1.521,4.146-1.438
				s5.917,3.083,1.417,6.667C314.167,39.833,314.75,44,314.75,44z"/>
		</symbol>
		<symbol id="facebook-svg" viewBox="27 79 41 41">
			<path id="Blue_1_" fill="#3D5B9A" d="M65.5,119.8c1.2,0,2.2-1,2.2-2.2V81.5c0-1.2-1-2.2-2.2-2.2H29.4c-1.2,0-2.2,1-2.2,2.2v36.1
	c0,1.2,1,2.2,2.2,2.2H65.5z"/>
<path id="f" fill="#FFFFFF" d="M55.2,119.8v-15.7h5.3l0.8-6.1h-6.1v-3.9c0-1.8,0.5-3,3-3l3.2,0v-5.5c-0.6-0.1-2.5-0.2-4.7-0.2
	c-4.7,0-7.9,2.9-7.9,8.1V98h-5.3v6.1h5.3v15.7H55.2z"/>

		</symbol>
		<symbol id="twitter-svg" viewBox="86 78 52 44"> 
				<path  fill="#55ACEE" d="M137.5,84.4c-1.8,0.8-3.8,1.4-5.8,1.6c2.1-1.3,3.7-3.2,4.5-5.6c-2,1.2-4.1,2-6.4,2.5
			c-1.8-2-4.5-3.2-7.4-3.2c-5.6,0-10.1,4.5-10.1,10.1c0,0.8,0.1,1.6,0.3,2.3c-8.4-0.4-15.9-4.5-20.9-10.6c-0.9,1.5-1.4,3.2-1.4,5.1
			c0,3.5,1.8,6.6,4.5,8.4C93,95,91.4,94.6,90,93.8c0,0,0,0.1,0,0.1c0,4.9,3.5,9,8.1,9.9c-0.9,0.2-1.7,0.4-2.7,0.4
			c-0.7,0-1.3-0.1-1.9-0.2c1.3,4,5,7,9.5,7c-3.5,2.7-7.8,4.3-12.6,4.3c-0.8,0-1.6,0-2.4-0.1c4.5,2.9,9.8,4.6,15.5,4.6
			c18.6,0,28.8-15.4,28.8-28.8c0-0.4,0-0.9,0-1.3C134.4,88.3,136.1,86.5,137.5,84.4z"/>
		</symbol>
		<symbol id="youtube-svg" viewBox="154 80 57 40">
			<path id="Triangle" fill="#FFFFFF" d="M177.2,107.4l15.3-7.9l-15.3-8V107.4z"/>
	<path id="The_Sharpness" opacity="0.12" fill-rule="evenodd" clip-rule="evenodd" fill="#420000" d="M177.2,91.5l13.4,8.9l1.9-1
		L177.2,91.5z"/>
			<g id="Lozenge">
				<g>
			
						<linearGradient id="SVGID_1_" gradientUnits="userSpaceOnUse" x1="112.3037" y1="80.1897" x2="112.3037" y2="119.9688" gradientTransform="matrix(1 0 0 1 70.75 0)">
						<stop  offset="0" style="stop-color:#E52D27"/>
						<stop  offset="1" style="stop-color:#BF171D"/>
					</linearGradient>
					<path fill="url(#SVGID_1_)" d="M210.8,88.8c0,0-0.6-3.9-2.2-5.6c-2.2-2.3-4.6-2.3-5.7-2.4c-7.9-0.6-19.8-0.6-19.8-0.6h0
						c0,0-11.9,0-19.8,0.6c-1.1,0.1-3.5,0.1-5.7,2.4c-1.7,1.7-2.2,5.6-2.2,5.6s-0.6,4.6-0.6,9.2v4.3c0,4.6,0.6,9.2,0.6,9.2
						s0.6,3.9,2.2,5.6c2.2,2.3,5,2.2,6.2,2.4c4.5,0.4,19.2,0.6,19.2,0.6s11.9,0,19.8-0.6c1.1-0.1,3.5-0.1,5.7-2.4
						c1.7-1.7,2.2-5.6,2.2-5.6s0.6-4.6,0.6-9.2v-4.3C211.3,93.3,210.8,88.8,210.8,88.8z M177.2,107.4l0-15.9l15.3,8L177.2,107.4z"/>
				</g>
			</g>
		</symbol>
		
	 </defs>
</svg>