<?xml version="1.0" encoding="utf-8"?>
<!-- Generator: Adobe Illustrator 18.1.1, SVG Export Plug-In . SVG Version: 6.00 Build 0)  -->
<svg version="1.1" id="Layer_1" xmlns="http://www.w3.org/2000/svg" xmlns:xlink="http://www.w3.org/1999/xlink" x="0px" y="0px"
	 viewBox="0 0 612 792" enable-background="new 0 0 612 792" xml:space="preserve">
<g id="phone-icon">
	<path fill="#010101" d="M233.6,37.1h-8.2c0.2,0.7,0.5,1.3,1.2,1.6h5.8C233.1,38.4,233.4,37.8,233.6,37.1z"/>
	<path fill="#010101" d="M251.8,38.7h5.8c0.7-0.2,1.1-0.8,1.2-1.6h-8.2C250.9,37.8,251.2,38.4,251.8,38.7z"/>
	<path fill="#010101" d="M247.6,36v-1.7c0.9,0.1,1.7,0.3,2.1,0.6c0.3,0.2,0.5,0.5,0.6,0.9h8.6c-0.1-1.6-0.8-3.3-1.4-4
		c-2.5-3-15.4-2.7-15.4-2.7s-12.9-0.3-15.4,2.7c-0.6,0.7-1.3,2.4-1.4,4h8.6c0.1-0.4,0.3-0.7,0.6-0.9c0.4-0.2,1.2-0.4,2.1-0.6V36
		l-2.3,2.6L231,47v1.7v1c0,0.5,0.4,1,1,1h10.2h10.2c0.5,0,1-0.4,1-1v-1V47l-3.4-8.3L247.6,36z M245.8,34.1v1.7h-7.4v-1.7
		C240.3,33.9,244,33.9,245.8,34.1z M242.1,46.9c-2.5,0-4.5-2-4.5-4.5s2-4.5,4.5-4.5s4.5,2,4.5,4.5S244.6,46.9,242.1,46.9z"/>
</g>
<g id="commuter-icon">
	<path fill="#231F20" d="M173.4,38.8h-34.7c0.4,0.9,0.6,1.8,0.6,2.8s-0.2,1.9-0.6,2.8h34.7c-0.4-0.9-0.6-1.8-0.6-2.8
		C172.8,40.6,173,39.6,173.4,38.8z"/>
	<path fill="#231F20" d="M175.6,41.5c0,0.9,0.3,1.7,0.7,2.4c0.1,0.2,0.3,0.4,0.5,0.6c0.6,0.7,1.5,1.2,2.5,1.4c0.3,0,0.5,0.1,0.8,0.1
		c0.8,0,1.6-0.2,2.3-0.7c1.3-0.8,2.1-2.2,2.1-3.8c0-0.9-0.3-1.7-0.7-2.4c-0.4-0.6-0.8-1-1.4-1.4c-0.7-0.4-1.5-0.7-2.3-0.7
		c-0.3,0-0.5,0-0.8,0.1c-1,0.2-1.8,0.7-2.5,1.4C176.1,39.4,175.6,40.4,175.6,41.5z"/>
	<path fill="#231F20" d="M135.5,44.3c0.6-0.8,1-1.7,1-2.8c0-0.9-0.3-1.7-0.7-2.4c-0.1-0.1-0.2-0.3-0.3-0.4c-0.3-0.4-0.7-0.7-1.1-1
		c-0.7-0.4-1.5-0.7-2.3-0.7c-0.3,0-0.5,0-0.8,0.1c-1,0.2-1.8,0.7-2.5,1.4c-0.7,0.8-1.2,1.8-1.2,3c0,0.9,0.3,1.7,0.7,2.4
		c0.1,0.2,0.3,0.4,0.5,0.6c0.6,0.7,1.5,1.2,2.5,1.4c0.3,0,0.5,0.1,0.8,0.1c0.8,0,1.6-0.2,2.3-0.7C134.8,45.1,135.1,44.7,135.5,44.3z
		"/>
</g>
<g id="local-icon">
	<path fill="#231F20" d="M73.1,38.7l8.3,6.5c0.2-0.8,0.6-1.6,1.2-2.3c0.5-0.7,1.2-1.3,2-1.7l-8.3-6.5c-0.2,0.8-0.6,1.6-1.2,2.3
		C74.6,37.7,73.9,38.2,73.1,38.7z"/>
	<path fill="#231F20" d="M73.1,35.4c0.5-0.6,0.8-1.3,0.8-2.1c0-0.2,0-0.5,0-0.7c-0.1-0.9-0.4-1.7-1-2.4c-0.2-0.2-0.3-0.3-0.5-0.5
		c-0.6-0.5-1.3-0.7-2-0.8c-1.3-0.2-2.7,0.4-3.6,1.5C66.3,31,66,31.7,66,32.5c-0.1,0.6,0,1.2,0.2,1.8c0.2,0.7,0.7,1.3,1.3,1.8
		c0.2,0.2,0.4,0.3,0.6,0.4c0.8,0.4,1.7,0.5,2.5,0.4C71.6,36.7,72.5,36.3,73.1,35.4z"/>
	<path fill="#231F20" d="M86.9,43c-0.9,0.2-1.7,0.7-2.3,1.4c-0.5,0.6-0.8,1.3-0.8,2.1c0,0.2,0,0.3,0,0.5c0,0.4,0.1,0.9,0.2,1.3
		c0.2,0.7,0.7,1.3,1.3,1.8c0.2,0.2,0.4,0.3,0.6,0.4c0.8,0.4,1.7,0.5,2.5,0.4c0.9-0.2,1.8-0.7,2.5-1.5c0.5-0.6,0.8-1.3,0.8-2.1
		c0-0.2,0-0.5,0-0.7c-0.1-0.9-0.4-1.7-1-2.4c-0.2-0.2-0.3-0.3-0.5-0.5c-0.6-0.5-1.3-0.7-2-0.8C87.7,42.9,87.3,42.9,86.9,43z"/>
	<path fill="#231F20" d="M37.2,38.6l8.3,6.5c0.2-0.8,0.6-1.6,1.2-2.3c0.5-0.7,1.2-1.3,2-1.7l-8.3-6.5c-0.2,0.8-0.6,1.6-1.2,2.3
		C38.7,37.6,38,38.2,37.2,38.6z"/>
	<path fill="#231F20" d="M37.2,35.4c0.5-0.6,0.8-1.3,0.8-2.1c0-0.2,0-0.5,0-0.7c-0.1-0.9-0.4-1.7-1-2.4c-0.2-0.2-0.3-0.3-0.5-0.5
		c-0.6-0.5-1.3-0.7-2-0.8c-1.3-0.2-2.7,0.4-3.6,1.5c-0.5,0.6-0.8,1.3-0.8,2.1c-0.1,0.6,0,1.2,0.2,1.8c0.2,0.7,0.7,1.3,1.3,1.8
		c0.2,0.2,0.4,0.3,0.6,0.4c0.8,0.4,1.7,0.5,2.5,0.4C35.7,36.7,36.6,36.2,37.2,35.4z"/>
	<path fill="#231F20" d="M51,43c-0.9,0.2-1.7,0.7-2.3,1.4c-0.5,0.6-0.8,1.3-0.8,2.1c0,0.2,0,0.3,0,0.5c0,0.4,0.1,0.9,0.2,1.3
		c0.2,0.7,0.7,1.3,1.3,1.8c0.2,0.2,0.4,0.3,0.6,0.4c0.8,0.4,1.7,0.5,2.5,0.4c0.9-0.2,1.8-0.7,2.5-1.5c0.5-0.6,0.8-1.3,0.8-2.1
		c0-0.2,0-0.5,0-0.7c-0.1-0.9-0.4-1.7-1-2.4c-0.2-0.2-0.3-0.3-0.5-0.5c-0.6-0.5-1.3-0.7-2-0.8C51.9,42.8,51.4,42.9,51,43z"/>
	<path fill="#231F20" d="M58.8,45.2l8.3-6.6c-0.8-0.4-1.4-1-2-1.7s-0.9-1.5-1.2-2.3l-8.3,6.6c0.8,0.4,1.4,1,2,1.7
		C58.1,43.6,58.5,44.4,58.8,45.2z"/>
</g>
<g id="question-mark">
	<circle fill="#010101" cx="316.9" cy="49.8" r="2.7"/>
	<path fill="#010101" d="M314.8,44c0,0,2.1-1.1,4.1,0c0-0.6-0.1-3.8,3.1-5.8c5.1-3.3,2.3-10.8-1.6-11.7c-4.9-1.1-6.6,0.3-8.8,1.8
		l1.6,2.8c0,0,1.1-1.5,4.1-1.4s5.9,3.1,1.4,6.7C314.2,39.8,314.8,44,314.8,44z"/>
</g>
<path id="Blue_1_" fill="#3D5B9A" d="M65.5,119.8c1.2,0,2.2-1,2.2-2.2V81.5c0-1.2-1-2.2-2.2-2.2H29.4c-1.2,0-2.2,1-2.2,2.2v36.1
	c0,1.2,1,2.2,2.2,2.2C29.4,119.8,65.5,119.8,65.5,119.8z"/>
<path id="f" fill="#FFFFFF" d="M55.2,119.8v-15.7h5.3l0.8-6.1h-6.1v-3.9c0-1.8,0.5-3,3-3h3.2v-5.5c-0.6-0.1-2.5-0.2-4.7-0.2
	c-4.7,0-7.9,2.9-7.9,8.1V98h-5.3v6.1h5.3v15.7C48.8,119.8,55.2,119.8,55.2,119.8z"/>
<g id="youtube">
	<path id="Triangle" fill="#FFFFFF" d="M177.2,107.4l15.3-7.9l-15.3-8V107.4z"/>
	<path id="The_Sharpness" opacity="0.12" fill-rule="evenodd" clip-rule="evenodd" fill="#420000" d="M177.2,91.5l13.4,8.9l1.9-1
		L177.2,91.5z"/>
	<g id="Lozenge">
		<g>
			
				<linearGradient id="SVGID_1_" gradientUnits="userSpaceOnUse" x1="112.3037" y1="80.1897" x2="112.3037" y2="119.9688" gradientTransform="matrix(1 0 0 1 70.75 0)">
				<stop  offset="0" style="stop-color:#E52D27"/>
				<stop  offset="1" style="stop-color:#BF171D"/>
			</linearGradient>
			<path fill="url(#SVGID_1_)" d="M210.8,88.8c0,0-0.6-3.9-2.2-5.6c-2.2-2.3-4.6-2.3-5.7-2.4c-7.9-0.6-19.8-0.6-19.8-0.6h0
				c0,0-11.9,0-19.8,0.6c-1.1,0.1-3.5,0.1-5.7,2.4c-1.7,1.7-2.2,5.6-2.2,5.6s-0.6,4.6-0.6,9.2v4.3c0,4.6,0.6,9.2,0.6,9.2
				s0.6,3.9,2.2,5.6c2.2,2.3,5,2.2,6.2,2.4c4.5,0.4,19.2,0.6,19.2,0.6s11.9,0,19.8-0.6c1.1-0.1,3.5-0.1,5.7-2.4
				c1.7-1.7,2.2-5.6,2.2-5.6s0.6-4.6,0.6-9.2v-4.3C211.3,93.3,210.8,88.8,210.8,88.8z M177.2,107.4l0-15.9l15.3,8L177.2,107.4z"/>
		</g>
	</g>
</g>
<path id="twitter" fill="#55ACEE" d="M137.5,84.4c-1.8,0.8-3.8,1.4-5.8,1.6c2.1-1.3,3.7-3.2,4.5-5.6c-2,1.2-4.1,2-6.4,2.5
	c-1.8-2-4.5-3.2-7.4-3.2c-5.6,0-10.1,4.5-10.1,10.1c0,0.8,0.1,1.6,0.3,2.3c-8.4-0.4-15.9-4.5-20.9-10.6c-0.9,1.5-1.4,3.2-1.4,5.1
	c0,3.5,1.8,6.6,4.5,8.4C93,95,91.4,94.6,90,93.8c0,0,0,0.1,0,0.1c0,4.9,3.5,9,8.1,9.9c-0.9,0.2-1.7,0.4-2.7,0.4
	c-0.7,0-1.3-0.1-1.9-0.2c1.3,4,5,7,9.5,7c-3.5,2.7-7.8,4.3-12.6,4.3c-0.8,0-1.6,0-2.4-0.1c4.5,2.9,9.8,4.6,15.5,4.6
	c18.6,0,28.8-15.4,28.8-28.8c0-0.4,0-0.9,0-1.3C134.4,88.3,136.1,86.5,137.5,84.4z"/>
</svg>
