<?xml version="1.0" encoding="utf-8"?>
<!-- Generator: Adobe Illustrator 18.1.1, SVG Export Plug-In . SVG Version: 6.00 Build 0)  -->
<svg version="1.1" id="Layer_1" xmlns="http://www.w3.org/2000/svg" xmlns:xlink="http://www.w3.org/1999/xlink" x="0px" y="0px"
	 viewBox="0 0 800 400" enable-background="new 0 0 800 400" xml:space="preserve">
<g id="phone-icon">
	<path fill="#010101" d="M363.4,18.7h-4.1c0.1,0.4,0.3,0.7,0.6,0.8h2.9C363.2,19.4,363.3,19.1,363.4,18.7z"/>
	<path fill="#010101" d="M372.6,19.5h2.9c0.4-0.1,0.6-0.4,0.6-0.8H372C372.2,19.1,372.3,19.4,372.6,19.5z"/>
	<path fill="#010101" d="M370.5,18.2v-0.9c0.5,0.1,0.9,0.2,1.1,0.3c0.2,0.1,0.3,0.3,0.3,0.5h4.3c-0.1-0.8-0.4-1.7-0.7-2
		c-1.3-1.5-7.8-1.4-7.8-1.4s-6.5-0.2-7.8,1.4c-0.3,0.4-0.7,1.2-0.7,2h4.3c0.1-0.2,0.2-0.4,0.3-0.5c0.2-0.1,0.6-0.2,1.1-0.3v0.9
		l-1.2,1.3l-1.7,4.2v0.9v0.5c0,0.3,0.2,0.5,0.5,0.5h5.2h5.2c0.3,0,0.5-0.2,0.5-0.5v-0.5v-0.9l-1.7-4.2L370.5,18.2z M369.6,17.2v0.9
		h-3.7v-0.9C366.8,17.1,368.7,17.1,369.6,17.2z M367.7,23.7c-1.3,0-2.3-1-2.3-2.3s1-2.3,2.3-2.3c1.3,0,2.3,1,2.3,2.3
		S369,23.7,367.7,23.7z"/>
</g>
<g id="commuter-icon">
	<path fill="#231F20" d="M333,19.6h-17.5c0.2,0.5,0.3,0.9,0.3,1.4s-0.1,1-0.3,1.4H333c-0.2-0.5-0.3-0.9-0.3-1.4
		C332.7,20.5,332.8,20,333,19.6z"/>
	<path fill="#231F20" d="M334.1,21c0,0.5,0.2,0.9,0.4,1.2c0.1,0.1,0.2,0.2,0.3,0.3c0.3,0.4,0.8,0.6,1.3,0.7c0.2,0,0.3,0.1,0.4,0.1
		c0.4,0,0.8-0.1,1.2-0.4c0.7-0.4,1.1-1.1,1.1-1.9c0-0.5-0.2-0.9-0.4-1.2c-0.2-0.3-0.4-0.5-0.7-0.7c-0.4-0.2-0.8-0.4-1.2-0.4
		c-0.2,0-0.3,0-0.4,0.1c-0.5,0.1-0.9,0.4-1.3,0.7C334.4,19.9,334.1,20.4,334.1,21z"/>
	<path fill="#231F20" d="M313.9,22.4c0.3-0.4,0.5-0.9,0.5-1.4c0-0.5-0.2-0.9-0.4-1.2c-0.1-0.1-0.1-0.2-0.2-0.2
		c-0.2-0.2-0.4-0.4-0.6-0.5c-0.4-0.2-0.8-0.4-1.2-0.4c-0.2,0-0.3,0-0.4,0.1c-0.5,0.1-0.9,0.4-1.3,0.7c-0.4,0.4-0.6,0.9-0.6,1.5
		c0,0.5,0.2,0.9,0.4,1.2c0.1,0.1,0.2,0.2,0.3,0.3c0.3,0.4,0.8,0.6,1.3,0.7c0.2,0,0.3,0.1,0.4,0.1c0.4,0,0.8-0.1,1.2-0.4
		C313.5,22.8,313.7,22.6,313.9,22.4z"/>
</g>
<g id="local-icon">
	<path fill="#231F20" d="M282.4,19.5l4.2,3.3c0.1-0.4,0.3-0.8,0.6-1.2c0.3-0.4,0.6-0.7,1-0.9l-4.2-3.3c-0.1,0.4-0.3,0.8-0.6,1.2
		C283.1,19,282.8,19.3,282.4,19.5z"/>
	<path fill="#231F20" d="M282.4,17.9c0.3-0.3,0.4-0.7,0.4-1.1c0-0.1,0-0.3,0-0.4c-0.1-0.5-0.2-0.9-0.5-1.2c-0.1-0.1-0.2-0.2-0.3-0.3
		c-0.3-0.3-0.7-0.4-1-0.4c-0.7-0.1-1.4,0.2-1.8,0.8c-0.3,0.3-0.4,0.7-0.4,1.1c-0.1,0.3,0,0.6,0.1,0.9c0.1,0.4,0.4,0.7,0.7,0.9
		c0.1,0.1,0.2,0.2,0.3,0.2c0.4,0.2,0.9,0.3,1.3,0.2C281.6,18.5,282.1,18.3,282.4,17.9z"/>
	<path fill="#231F20" d="M289.3,21.7c-0.5,0.1-0.9,0.4-1.2,0.7c-0.3,0.3-0.4,0.7-0.4,1.1c0,0.1,0,0.2,0,0.3c0,0.2,0.1,0.5,0.1,0.7
		c0.1,0.4,0.4,0.7,0.7,0.9c0.1,0.1,0.2,0.2,0.3,0.2c0.4,0.2,0.9,0.3,1.3,0.2c0.5-0.1,0.9-0.4,1.3-0.8c0.3-0.3,0.4-0.7,0.4-1.1
		c0-0.1,0-0.3,0-0.4c-0.1-0.5-0.2-0.9-0.5-1.2c-0.1-0.1-0.2-0.2-0.3-0.3c-0.3-0.3-0.7-0.4-1-0.4C289.7,21.7,289.5,21.7,289.3,21.7z"
		/>
	<path fill="#231F20" d="M264.2,19.5l4.2,3.3c0.1-0.4,0.3-0.8,0.6-1.2c0.3-0.4,0.6-0.7,1-0.9l-4.2-3.3c-0.1,0.4-0.3,0.8-0.6,1.2
		C265,19,264.6,19.3,264.2,19.5z"/>
	<path fill="#231F20" d="M264.2,17.9c0.3-0.3,0.4-0.7,0.4-1.1c0-0.1,0-0.3,0-0.4c-0.1-0.5-0.2-0.9-0.5-1.2c-0.1-0.1-0.2-0.2-0.3-0.3
		c-0.3-0.3-0.7-0.4-1-0.4c-0.7-0.1-1.4,0.2-1.8,0.8c-0.3,0.3-0.4,0.7-0.4,1.1c-0.1,0.3,0,0.6,0.1,0.9c0.1,0.4,0.4,0.7,0.7,0.9
		c0.1,0.1,0.2,0.2,0.3,0.2c0.4,0.2,0.9,0.3,1.3,0.2C263.5,18.5,263.9,18.3,264.2,17.9z"/>
	<path fill="#231F20" d="M271.2,21.7c-0.5,0.1-0.9,0.4-1.2,0.7c-0.3,0.3-0.4,0.7-0.4,1.1c0,0.1,0,0.2,0,0.3c0,0.2,0.1,0.5,0.1,0.7
		c0.1,0.4,0.4,0.7,0.7,0.9c0.1,0.1,0.2,0.2,0.3,0.2c0.4,0.2,0.9,0.3,1.3,0.2c0.5-0.1,0.9-0.4,1.3-0.8c0.3-0.3,0.4-0.7,0.4-1.1
		c0-0.1,0-0.3,0-0.4c-0.1-0.5-0.2-0.9-0.5-1.2c-0.1-0.1-0.2-0.2-0.3-0.3c-0.3-0.3-0.7-0.4-1-0.4C271.7,21.6,271.4,21.7,271.2,21.7z"
		/>
	<path fill="#231F20" d="M275.2,22.8l4.2-3.3c-0.4-0.2-0.7-0.5-1-0.9c-0.3-0.4-0.5-0.8-0.6-1.2l-4.2,3.3c0.4,0.2,0.7,0.5,1,0.9
		C274.8,22,275,22.4,275.2,22.8z"/>
</g>
<g id="question-mark">
	<circle fill="#010101" cx="405.5" cy="25.2" r="1.4"/>
	<path fill="#010101" d="M404.4,22.2c0,0,1.1-0.6,2.1,0c0-0.3-0.1-1.9,1.6-2.9c2.6-1.7,1.2-5.5-0.8-5.9c-2.5-0.6-3.3,0.2-4.4,0.9
		l0.8,1.4c0,0,0.6-0.8,2.1-0.7c1.5,0.1,3,1.6,0.7,3.4C404.1,20.1,404.4,22.2,404.4,22.2z"/>
</g>
<path id="Blue_1_" fill="#3D5B9A" d="M278.5,60.5c0.6,0,1.1-0.5,1.1-1.1V41.2c0-0.6-0.5-1.1-1.1-1.1h-18.2c-0.6,0-1.1,0.5-1.1,1.1
	v18.2c0,0.6,0.5,1.1,1.1,1.1L278.5,60.5z"/>
<path id="f" fill="#FFFFFF" d="M273.3,60.5v-7.9h2.7l0.4-3.1h-3.1v-2c0-0.9,0.3-1.5,1.5-1.5h1.6v-2.8c-0.3-0.1-1.3-0.1-2.4-0.1
	c-2.4,0-4,1.5-4,4.1v2.3h-2.7v3.1h2.7v7.9L273.3,60.5z"/>
<g id="youtube">
	<path id="Triangle" fill="#FFFFFF" d="M334.9,54.2l7.7-4l-7.7-4V54.2z"/>
	<path id="The_Sharpness" opacity="0.12" fill="#420000" enable-background="new    " d="M334.9,46.2l6.8,4.5l1-0.5L334.9,46.2z"/>
	<g id="Lozenge">
		<g>
			
				<linearGradient id="SVGID_1_" gradientUnits="userSpaceOnUse" x1="112.3" y1="-311.8" x2="112.3" y2="-272.0209" gradientTransform="matrix(0.5051 0 0 0.5051 281.1869 197.9798)">
				<stop  offset="0" style="stop-color:#E52D27"/>
				<stop  offset="1" style="stop-color:#BF171D"/>
			</linearGradient>
			<path fill="url(#SVGID_1_)" d="M351.9,44.8c0,0-0.3-2-1.1-2.8c-1.1-1.2-2.3-1.2-2.9-1.2c-4-0.3-10-0.3-10-0.3l0,0c0,0-6,0-10,0.3
				c-0.6,0.1-1.8,0.1-2.9,1.2c-0.9,0.9-1.1,2.8-1.1,2.8s-0.3,2.3-0.3,4.6v2.2c0,2.3,0.3,4.6,0.3,4.6s0.3,2,1.1,2.8
				c1.1,1.2,2.5,1.1,3.1,1.2c2.3,0.2,9.7,0.3,9.7,0.3s6,0,10-0.3c0.6-0.1,1.8-0.1,2.9-1.2c0.9-0.9,1.1-2.8,1.1-2.8s0.3-2.3,0.3-4.6
				v-2.2C352.2,47.1,351.9,44.8,351.9,44.8z M334.9,54.2v-8l7.7,4L334.9,54.2z"/>
		</g>
	</g>
</g>
<path id="twitter" fill="#55ACEE" d="M314.9,42.6c-0.9,0.4-1.9,0.7-2.9,0.8c1.1-0.7,1.9-1.6,2.3-2.8c-1,0.6-2.1,1-3.2,1.3
	c-0.9-1-2.3-1.6-3.7-1.6c-2.8,0-5.1,2.3-5.1,5.1c0,0.4,0.1,0.8,0.2,1.2c-4.2-0.2-8-2.3-10.6-5.4c-0.5,0.8-0.7,1.6-0.7,2.6
	c0,1.8,0.9,3.3,2.3,4.2c-0.9,0-1.7-0.2-2.4-0.6v0.1c0,2.5,1.8,4.5,4.1,5c-0.5,0.1-0.9,0.2-1.4,0.2c-0.4,0-0.7-0.1-1-0.1
	c0.7,2,2.5,3.5,4.8,3.5c-1.8,1.4-3.9,2.2-6.4,2.2c-0.4,0-0.8,0-1.2-0.1c2.3,1.5,4.9,2.3,7.8,2.3c9.4,0,14.5-7.8,14.5-14.5
	c0-0.2,0-0.5,0-0.7C313.3,44.6,314.2,43.7,314.9,42.6z"/>
<g id="map">
	<polygon fill="none" stroke="#000000" stroke-miterlimit="10" points="365.2,59.4 374.7,56 376.3,39.9 369.4,43.2 	"/>
	<polygon fill="none" stroke="#000000" stroke-miterlimit="10" points="383.2,43.4 384.6,59.4 392.9,56.1 388.9,40.1 	"/>
	<polygon fill="none" stroke="#000000" stroke-miterlimit="10" points="376.6,39.9 375.2,56 384.1,59.4 382.8,43.4 	"/>
</g>
<g id="routeshout">
	<path fill="#F15D22" d="M290.3,90.5h-2.4V76.3h3.4c2.7,0,4.1,1.2,4.1,4.2c0,2.3-0.9,3.2-1.7,3.6l2.1,6.4h-2.5l-1.7-5.9
		c-0.3,0.1-0.8,0.1-1.3,0.1L290.3,90.5 M290.3,82.7h0.9c1.3,0,1.8-0.5,1.8-2.2c0-1.7-0.5-2.2-1.8-2.2h-0.9V82.7z"/>
	<path fill="#F15D22" d="M296.7,83.6c0-2.3,0.9-3.9,3.4-3.9c2.5,0,3.4,1.6,3.4,3.9v3.1c0,2.3-0.9,3.9-3.4,3.9
		c-2.5,0-3.4-1.6-3.4-3.9V83.6 M301.3,83.2c0-1.2-0.5-1.7-1.2-1.7c-0.8,0-1.2,0.5-1.2,1.7v3.9c0,1.2,0.5,1.7,1.2,1.7
		c0.8,0,1.2-0.5,1.2-1.7V83.2z"/>
	<path fill="#F15D22" d="M311.8,79.9v10.6h-2.1v-1.1c-0.9,0.8-1.4,1.3-2.7,1.3c-1.2,0-1.9-0.9-1.9-2.2v-8.5h2.2v8.2
		c0,0.6,0.3,0.8,0.8,0.8c0.5,0,0.9-0.3,1.4-0.7v-8.3L311.8,79.9"/>
	<path fill="#F15D22" d="M313.4,81.7v-1.8h1.2v-2.8h2.2v2.8h1.5v1.8h-1.5v6.1c0,0.6,0.3,0.9,0.8,0.9h0.7v1.9
		c-0.3,0.1-0.6,0.1-1.1,0.1c-1.7,0-2.6-0.8-2.6-2.4v-6.6H313.4"/>
	<path fill="#F15D22" d="M326.1,85.6h-4.6v1.5c0,1.2,0.5,1.7,1.2,1.7c0.8,0,1.2-0.5,1.2-1.7v-0.3h2.2c-0.1,2.2-1,3.8-3.4,3.8
		c-2.5,0-3.4-1.6-3.4-3.9v-3.1c0-2.3,0.9-3.9,3.4-3.9c2.5,0,3.4,1.6,3.4,3.9V85.6 M323.9,83.8v-0.6c0-1.2-0.5-1.7-1.2-1.7
		c-0.8,0-1.2,0.5-1.2,1.7v0.6H323.9z"/>
	<path fill="#F15D22" d="M332.6,79.8c-0.1-1.2-0.8-1.6-1.3-1.6c-0.8,0-1.2,0.5-1.2,1.4c0,2.4,4.9,3.6,4.9,7.4c0,2.3-1.6,3.6-3.8,3.6
		s-3.5-1.8-3.6-3.9l2.3-0.4c0.1,1.4,0.7,2.1,1.5,2.1c0.9,0,1.4-0.5,1.4-1.3c0-2.8-4.9-3.6-4.9-7.6c0-2.3,1.4-3.5,3.8-3.5
		c2,0,3.2,1.4,3.4,3.4L332.6,79.8"/>
	<path fill="#F15D22" d="M336.4,90.5V76.3h2.2v4.6c0.8-0.7,1.3-1.2,2.6-1.2c1.2,0,1.9,0.9,1.9,2.2v8.5h-2.2v-8.2
		c0-0.6-0.3-0.8-0.8-0.8c-0.5,0-0.9,0.3-1.4,0.7v8.3L336.4,90.5"/>
	<path fill="#F15D22" d="M344.2,83.6c0-2.3,0.9-3.9,3.4-3.9c2.5,0,3.4,1.6,3.4,3.9v3.1c0,2.3-0.9,3.9-3.4,3.9
		c-2.5,0-3.4-1.6-3.4-3.9V83.6 M348.9,83.2c0-1.2-0.5-1.7-1.2-1.7c-0.8,0-1.2,0.5-1.2,1.7v3.9c0,1.2,0.5,1.7,1.2,1.7
		c0.8,0,1.2-0.5,1.2-1.7V83.2z"/>
	<path fill="#F15D22" d="M359.3,79.9v10.6h-2.1v-1.1c-0.9,0.8-1.4,1.3-2.7,1.3c-1.2,0-1.9-0.9-1.9-2.2v-8.5h2.2v8.2
		c0,0.6,0.3,0.8,0.8,0.8c0.5,0,0.9-0.3,1.4-0.7v-8.3L359.3,79.9"/>
	<path fill="#F15D22" d="M361,81.7v-1.8h1.2v-2.8h2.2v2.8h1.5v1.8h-1.5v6.1c0,0.6,0.3,0.9,0.8,0.9h0.7v1.9c-0.3,0.1-0.6,0.1-1.1,0.1
		c-1.7,0-2.6-0.8-2.6-2.4v-6.6H361"/>
	<path fill="#F15D22" d="M282.8,81.8c-1.1-5.5-5.9-9.5-11.6-9.6L282.8,81.8L282.8,81.8 M270.8,76.3c-0.3-0.1-0.6,0-0.7,0.3l-7,16.1
		c-0.1,0.2-0.1,0.4,0.1,0.6l0.1,0.1l0.1,0.1c0.3,0.1,0.6,0,0.7-0.3l7-16.1C271.2,76.7,271.1,76.4,270.8,76.3z M271.3,91.5
		c0.1,0.1,0.2,0.1,0.3,0.1l3.9-2.7c0.1-0.1,0.1-0.1,0.1-0.2s0-0.1-0.1-0.2l-0.8-1.2l-4.2,2.9L271.3,91.5z M283,82.8l-0.1,0.1
		c-0.3,0.3-0.8,0.4-1.1,0.1L270,73.2c-0.3-0.2-0.4-0.6-0.2-0.9c-6.1,0.7-10.7,5.7-10.7,11.9c0,3,1.1,5.8,3,7.9l7.8-18l11,9l-4.9,3.4
		l0.8,1.2c0.3,0.4,0.4,0.8,0.3,1.2c-0.1,0.4-0.3,0.8-0.7,1.1l-3.9,2.7c-0.8,0.5-1.8,0.3-2.3-0.4l-0.8-1.2l-4.7,3.2
		c1.9,1.2,4,1.9,6.4,1.9c6.6,0,12-5.4,12-12C283,83.7,283,83.2,283,82.8z"/>
</g>
<g id="all-routes">
	<rect x="260.7" y="110.5" opacity="0.49" fill="#231F20" enable-background="new    " width="2.4" height="13.2"/>
	<rect x="265.7" y="107" opacity="0.49" fill="#231F20" enable-background="new    " width="2.4" height="13.2"/>
	<rect x="270.7" y="110.5" opacity="0.49" fill="#231F20" enable-background="new    " width="2.4" height="13.2"/>
</g>
<g id="close">
	
		<rect x="288.5" y="110.5" transform="matrix(-0.7071 0.7071 -0.7071 -0.7071 577.2529 -4.8918)" opacity="0.49" fill="#231F20" enable-background="new    " width="2.4" height="13.2"/>
	
		<rect x="288.4" y="110.5" transform="matrix(-0.7071 -0.7071 0.7071 -0.7071 411.5618 404.7064)" opacity="0.49" fill="#231F20" enable-background="new    " width="2.4" height="13.2"/>
</g>
<g id="arrows-left">
	<polygon opacity="0.49" fill="#231F20" enable-background="new    " points="323.1,120.3 323.1,122.6 311.4,122.6 311.4,124 
		308.6,121.4 311.4,118.8 311.4,120.3 	"/>
	<polygon opacity="0.49" fill="#231F20" enable-background="new    " points="323.1,114 323.1,116.4 311.4,116.4 311.4,117.8 
		308.6,115.2 311.4,112.6 311.4,114 	"/>
</g>
<g id="arrows-right">
	<polygon opacity="0.49" fill="#231F20" enable-background="new    " points="331.3,116.4 331.3,113.9 343,113.9 343,112.6 
		345.9,115.2 343,117.8 343,116.4 	"/>
	<polygon opacity="0.49" fill="#231F20" enable-background="new    " points="331.3,122.6 331.3,120.2 343,120.2 343,118.8 
		345.9,121.4 343,124 343,122.6 	"/>
</g>
</svg>
