<svg height="0" width="0" style="display: none;" >
  <defs>
  <linearGradient id="map-bg-gradient">
      <stop offset="5%" stop-color="#F60" />
      <stop offset="95%" stop-color="#FF6" />
    </linearGradient> 
    <symbol id="arrows-left-svg" viewBox="308 113.5 15 12">
	<polygon opacity="0.49" fill="#231F20" enable-background="new    " points="323.1,120.3 323.1,122.6 311.4,122.6 311.4,124 
		308.6,121.4 311.4,118.8 311.4,120.3 	"/>
	<polygon opacity="0.49" fill="#231F20" enable-background="new    " points="323.1,114 323.1,116.4 311.4,116.4 311.4,117.8 
		308.6,115.2 311.4,112.6 311.4,114 	"/>
	</symbol>
	<symbol id="arrows-right-svg" viewBox="331 113 15 12">
		<polygon opacity="0.49" fill="#231F20" enable-background="new    " points="331.3,116.4 331.3,113.9 343,113.9 343,112.6 
		345.9,115.2 343,117.8 343,116.4 	"/>
	<polygon opacity="0.49" fill="#231F20" enable-background="new    " points="331.3,122.6 331.3,120.2 343,120.2 343,118.8 
		345.9,121.4 343,124 343,122.6 	"/>
	</symbol>
    <symbol id="all-routes-svg" viewBox="30 211 24 33.1">
		<rect x="30.1" y="218.8" opacity="0.49" fill="#231F20" width="4.7" height="26.2"/>
		<rect x="40.1" y="211.8" opacity="0.49" fill="#231F20" width="4.7" height="26.2"/>
		<rect x="49.9" y="218.8" opacity="0.49" fill="#231F20" width="4.7" height="26.2"/>
	</symbol>
	 <symbol id="close-svg" viewBox="76.5 220.9 21.8 21.8">
		<rect x="85.1" y="218.8" transform="matrix(0.7071 -0.7071 0.7071 0.7071 -138.326 129.7315)" opacity="0.49" fill="#231F20" width="4.7" height="26.2"/>
	
		<rect x="85.1" y="218.8" transform="matrix(0.7071 0.7071 -0.7071 0.7071 189.5453 6.0772)" opacity="0.49" fill="#231F20" width="4.7" height="26.2"/>
	</symbol>
    <symbol id="map" viewBox="237 79.5 55 39" class="none">
		<polygon fill="none" stroke="#000000" stroke-miterlimit="10" points="237,117.6 255.9,110.9 259,79 245.4,85.6 			"/>
		<polygon fill="none" stroke="#000000" stroke-miterlimit="10" points="272.7,85.9 275.5,117.6 292,111 284,79.4 			"/>
		<polygon fill="none" stroke="#000000" stroke-miterlimit="10" points="259.6,79 256.9,110.9 274.5,117.6 272,85.9 			"/>
	</symbol>
	<symbol id="dial-a-ride-svg" viewBox="223 29 37 22" class="none">
		<path fill="#010101" d="M233.569,37.138h-8.168c0.154,0.732,0.527,1.314,1.218,1.56h5.841
			C233.092,38.365,233.376,37.77,233.569,37.138z"/>
		<path fill="#010101" d="M251.823,38.699h5.842c0.691-0.245,1.063-0.828,1.217-1.56h-8.168
			C250.907,37.77,251.191,38.365,251.823,38.699z"/>
		<path fill="#010101" d="M247.636,36.04v-1.716c0.948,0.142,1.745,0.329,2.107,0.575c0.286,0.194,0.458,0.508,0.587,0.877h8.62
			c-0.115-1.557-0.778-3.265-1.366-3.958c-2.53-2.985-15.443-2.721-15.443-2.721s-12.912-0.265-15.443,2.721
			c-0.587,0.692-1.25,2.401-1.365,3.958h8.62c0.13-0.369,0.301-0.684,0.588-0.878c0.361-0.245,1.159-0.432,2.107-0.575v1.716
			l-2.307,2.636l-3.36,8.281v1.68v0.987c0,0.53,0.43,0.96,0.96,0.96h10.201h10.202c0.53,0,0.96-0.429,0.96-0.96v-0.987v-1.68
			l-3.361-8.281L247.636,36.04z M245.843,34.115v1.661h-7.404v-1.661C240.322,33.944,243.961,33.944,245.843,34.115z
			 M242.142,46.87c-2.489,0-4.508-2.018-4.508-4.507c0-2.49,2.018-4.508,4.508-4.508s4.508,2.018,4.508,4.508
			C246.65,44.852,244.631,46.87,242.142,46.87z"/>
	</symbol>
	<symbol id="commuter-svg" viewBox="126 33 60 40" class="none">
			<path fill="#231F20" d="M173.391,38.753l-34.7-0.001c0.371,0.88,0.568,1.826,0.568,2.793c0,0.98-0.197,1.925-0.561,2.794
				l34.691,0c-0.372-0.881-0.57-1.828-0.57-2.794C172.819,40.576,173.021,39.631,173.391,38.753z"/>
			<path fill="#231F20" d="M175.612,41.546c0,0.875,0.257,1.689,0.698,2.376c0.136,0.212,0.29,0.412,0.458,0.597
				c0.641,0.705,1.502,1.202,2.476,1.38c0.259,0.047,0.524,0.075,0.796,0.075c0.85,0,1.642-0.245,2.316-0.661
				c1.265-0.781,2.113-2.176,2.113-3.768c0-0.875-0.256-1.691-0.697-2.377c-0.361-0.563-0.846-1.039-1.416-1.391
				c-0.675-0.417-1.467-0.661-2.316-0.661c-0.272,0-0.537,0.029-0.796,0.076c-0.974,0.178-1.836,0.675-2.476,1.38
				C176.053,39.359,175.612,40.4,175.612,41.546z"/>
			<path fill="#231F20" d="M135.457,44.338c0.626-0.762,1.009-1.732,1.009-2.793c0-0.875-0.256-1.691-0.697-2.377
				c-0.093-0.145-0.194-0.283-0.303-0.415c-0.314-0.383-0.69-0.714-1.113-0.975c-0.675-0.417-1.467-0.661-2.317-0.661
				c-0.272,0-0.538,0.028-0.796,0.076c-0.974,0.178-1.836,0.675-2.476,1.38c-0.716,0.787-1.156,1.828-1.156,2.974
				c0,0.875,0.257,1.69,0.698,2.376c0.136,0.212,0.29,0.412,0.458,0.597c0.64,0.704,1.502,1.202,2.476,1.38
				c0.259,0.047,0.524,0.075,0.796,0.075c0.85,0,1.642-0.245,2.317-0.661C134.775,45.053,135.144,44.719,135.457,44.338z"/>
		</symbol> 
		<symbol id="commuter-svg-2" viewBox="126 33 60 40" class="none">
			<path fill="#231F20" d="M173.391,38.753l-34.7-0.001c0.371,0.88,0.568,1.826,0.568,2.793c0,0.98-0.197,1.925-0.561,2.794
				l34.691,0c-0.372-0.881-0.57-1.828-0.57-2.794C172.819,40.576,173.021,39.631,173.391,38.753z"/>
			<path fill="#231F20" d="M175.612,41.546c0,0.875,0.257,1.689,0.698,2.376c0.136,0.212,0.29,0.412,0.458,0.597
				c0.641,0.705,1.502,1.202,2.476,1.38c0.259,0.047,0.524,0.075,0.796,0.075c0.85,0,1.642-0.245,2.316-0.661
				c1.265-0.781,2.113-2.176,2.113-3.768c0-0.875-0.256-1.691-0.697-2.377c-0.361-0.563-0.846-1.039-1.416-1.391
				c-0.675-0.417-1.467-0.661-2.316-0.661c-0.272,0-0.537,0.029-0.796,0.076c-0.974,0.178-1.836,0.675-2.476,1.38
				C176.053,39.359,175.612,40.4,175.612,41.546z"/>
			<path fill="#231F20" d="M135.457,44.338c0.626-0.762,1.009-1.732,1.009-2.793c0-0.875-0.256-1.691-0.697-2.377
				c-0.093-0.145-0.194-0.283-0.303-0.415c-0.314-0.383-0.69-0.714-1.113-0.975c-0.675-0.417-1.467-0.661-2.317-0.661
				c-0.272,0-0.538,0.028-0.796,0.076c-0.974,0.178-1.836,0.675-2.476,1.38c-0.716,0.787-1.156,1.828-1.156,2.974
				c0,0.875,0.257,1.69,0.698,2.376c0.136,0.212,0.29,0.412,0.458,0.597c0.64,0.704,1.502,1.202,2.476,1.38
				c0.259,0.047,0.524,0.075,0.796,0.075c0.85,0,1.642-0.245,2.317-0.661C134.775,45.053,135.144,44.719,135.457,44.338z"/>
		</symbol> 
		<symbol id="commuter-svg-3" viewBox="126 33 60 40" class="none">
			<path fill="#231F20" d="M173.391,38.753l-34.7-0.001c0.371,0.88,0.568,1.826,0.568,2.793c0,0.98-0.197,1.925-0.561,2.794
				l34.691,0c-0.372-0.881-0.57-1.828-0.57-2.794C172.819,40.576,173.021,39.631,173.391,38.753z"/>
			<path fill="#231F20" d="M175.612,41.546c0,0.875,0.257,1.689,0.698,2.376c0.136,0.212,0.29,0.412,0.458,0.597
				c0.641,0.705,1.502,1.202,2.476,1.38c0.259,0.047,0.524,0.075,0.796,0.075c0.85,0,1.642-0.245,2.316-0.661
				c1.265-0.781,2.113-2.176,2.113-3.768c0-0.875-0.256-1.691-0.697-2.377c-0.361-0.563-0.846-1.039-1.416-1.391
				c-0.675-0.417-1.467-0.661-2.316-0.661c-0.272,0-0.537,0.029-0.796,0.076c-0.974,0.178-1.836,0.675-2.476,1.38
				C176.053,39.359,175.612,40.4,175.612,41.546z"/>
			<path fill="#231F20" d="M135.457,44.338c0.626-0.762,1.009-1.732,1.009-2.793c0-0.875-0.256-1.691-0.697-2.377
				c-0.093-0.145-0.194-0.283-0.303-0.415c-0.314-0.383-0.69-0.714-1.113-0.975c-0.675-0.417-1.467-0.661-2.317-0.661
				c-0.272,0-0.538,0.028-0.796,0.076c-0.974,0.178-1.836,0.675-2.476,1.38c-0.716,0.787-1.156,1.828-1.156,2.974
				c0,0.875,0.257,1.69,0.698,2.376c0.136,0.212,0.29,0.412,0.458,0.597c0.64,0.704,1.502,1.202,2.476,1.38
				c0.259,0.047,0.524,0.075,0.796,0.075c0.85,0,1.642-0.245,2.317-0.661C134.775,45.053,135.144,44.719,135.457,44.338z"/>
		</symbol> 
		
		
		<symbol id="local-svg" viewBox="27 30 66 24" class="none">
			<path fill="#231F20" d="M73.143,38.662l8.302,6.539c0.229-0.832,0.618-1.613,1.158-2.299c0.548-0.695,1.215-1.256,1.959-1.669
				L76.266,34.7c-0.228,0.834-0.617,1.616-1.157,2.301C74.568,37.688,73.896,38.247,73.143,38.662z"/>
			<path fill="#231F20" d="M73.127,35.44c0.489-0.621,0.762-1.342,0.833-2.076c0.022-0.226,0.025-0.454,0.009-0.68
				c-0.061-0.858-0.394-1.692-0.986-2.363c-0.157-0.178-0.33-0.346-0.523-0.498c-0.603-0.475-1.302-0.744-2.013-0.826
				c-1.334-0.153-2.715,0.363-3.605,1.493c-0.489,0.621-0.763,1.343-0.834,2.076c-0.058,0.601,0.02,1.21,0.228,1.778
				c0.246,0.673,0.671,1.289,1.274,1.764c0.193,0.152,0.397,0.28,0.607,0.391c0.791,0.418,1.68,0.547,2.528,0.405
				C71.593,36.745,72.487,36.252,73.127,35.44z"/>
			<path fill="#231F20" d="M86.861,43.045c-0.87,0.191-1.684,0.665-2.277,1.418c-0.489,0.621-0.763,1.343-0.834,2.076
				c-0.015,0.154-0.02,0.309-0.017,0.464c0.008,0.447,0.091,0.892,0.245,1.314c0.246,0.673,0.671,1.289,1.274,1.764
				c0.193,0.152,0.397,0.28,0.607,0.391c0.791,0.418,1.68,0.547,2.528,0.405c0.948-0.159,1.842-0.651,2.482-1.464
				c0.489-0.621,0.762-1.343,0.833-2.076c0.022-0.226,0.025-0.454,0.009-0.68c-0.061-0.858-0.394-1.692-0.986-2.363
				c-0.157-0.178-0.33-0.346-0.523-0.498c-0.603-0.475-1.302-0.744-2.013-0.826C87.745,42.919,87.296,42.949,86.861,43.045z"/>
			<path fill="#231F20" d="M37.249,38.58l8.302,6.539c0.229-0.832,0.618-1.613,1.158-2.299c0.548-0.695,1.215-1.256,1.959-1.669
				l-8.296-6.534c-0.228,0.834-0.617,1.616-1.157,2.301C38.674,37.606,38.003,38.165,37.249,38.58z"/>
			<path fill="#231F20" d="M37.234,35.357c0.489-0.621,0.762-1.342,0.833-2.076c0.022-0.226,0.025-0.454,0.009-0.68
				c-0.061-0.858-0.394-1.692-0.986-2.363c-0.157-0.178-0.33-0.346-0.523-0.498c-0.603-0.475-1.302-0.744-2.013-0.826
				c-1.334-0.153-2.715,0.363-3.605,1.493c-0.489,0.621-0.763,1.343-0.834,2.076c-0.058,0.601,0.02,1.21,0.228,1.778
				c0.246,0.673,0.671,1.289,1.274,1.764c0.193,0.152,0.397,0.28,0.607,0.391c0.791,0.418,1.68,0.547,2.528,0.405
				C35.699,36.662,36.594,36.17,37.234,35.357z"/>
			<path fill="#231F20" d="M50.968,42.962c-0.87,0.191-1.684,0.665-2.277,1.418c-0.489,0.621-0.763,1.343-0.834,2.076
				c-0.015,0.154-0.02,0.309-0.017,0.464c0.008,0.447,0.091,0.892,0.245,1.314c0.246,0.673,0.671,1.289,1.274,1.764
				c0.193,0.152,0.397,0.28,0.607,0.391c0.791,0.418,1.68,0.547,2.528,0.405c0.948-0.159,1.842-0.651,2.482-1.464
				c0.489-0.621,0.762-1.343,0.833-2.076c0.022-0.226,0.025-0.454,0.009-0.68c-0.061-0.858-0.394-1.692-0.986-2.363
				c-0.157-0.178-0.33-0.346-0.523-0.498c-0.603-0.475-1.302-0.744-2.013-0.826C51.851,42.837,51.403,42.867,50.968,42.962z"/>
			<path fill="#231F20" d="M58.768,45.218l8.271-6.578c-0.757-0.414-1.428-0.972-1.972-1.655c-0.551-0.693-0.943-1.471-1.174-2.29
				l-8.264,6.574c0.759,0.414,1.431,0.972,1.974,1.654C58.148,43.607,58.537,44.389,58.768,45.218z"/>
		</symbol>
		
		<symbol id="local-svg-2" viewBox="27 30 66 24" class="none">
			<path fill="#231F20" d="M73.143,38.662l8.302,6.539c0.229-0.832,0.618-1.613,1.158-2.299c0.548-0.695,1.215-1.256,1.959-1.669
				L76.266,34.7c-0.228,0.834-0.617,1.616-1.157,2.301C74.568,37.688,73.896,38.247,73.143,38.662z"/>
			<path fill="#231F20" d="M73.127,35.44c0.489-0.621,0.762-1.342,0.833-2.076c0.022-0.226,0.025-0.454,0.009-0.68
				c-0.061-0.858-0.394-1.692-0.986-2.363c-0.157-0.178-0.33-0.346-0.523-0.498c-0.603-0.475-1.302-0.744-2.013-0.826
				c-1.334-0.153-2.715,0.363-3.605,1.493c-0.489,0.621-0.763,1.343-0.834,2.076c-0.058,0.601,0.02,1.21,0.228,1.778
				c0.246,0.673,0.671,1.289,1.274,1.764c0.193,0.152,0.397,0.28,0.607,0.391c0.791,0.418,1.68,0.547,2.528,0.405
				C71.593,36.745,72.487,36.252,73.127,35.44z"/>
			<path fill="#231F20" d="M86.861,43.045c-0.87,0.191-1.684,0.665-2.277,1.418c-0.489,0.621-0.763,1.343-0.834,2.076
				c-0.015,0.154-0.02,0.309-0.017,0.464c0.008,0.447,0.091,0.892,0.245,1.314c0.246,0.673,0.671,1.289,1.274,1.764
				c0.193,0.152,0.397,0.28,0.607,0.391c0.791,0.418,1.68,0.547,2.528,0.405c0.948-0.159,1.842-0.651,2.482-1.464
				c0.489-0.621,0.762-1.343,0.833-2.076c0.022-0.226,0.025-0.454,0.009-0.68c-0.061-0.858-0.394-1.692-0.986-2.363
				c-0.157-0.178-0.33-0.346-0.523-0.498c-0.603-0.475-1.302-0.744-2.013-0.826C87.745,42.919,87.296,42.949,86.861,43.045z"/>
			<path fill="#231F20" d="M37.249,38.58l8.302,6.539c0.229-0.832,0.618-1.613,1.158-2.299c0.548-0.695,1.215-1.256,1.959-1.669
				l-8.296-6.534c-0.228,0.834-0.617,1.616-1.157,2.301C38.674,37.606,38.003,38.165,37.249,38.58z"/>
			<path fill="#231F20" d="M37.234,35.357c0.489-0.621,0.762-1.342,0.833-2.076c0.022-0.226,0.025-0.454,0.009-0.68
				c-0.061-0.858-0.394-1.692-0.986-2.363c-0.157-0.178-0.33-0.346-0.523-0.498c-0.603-0.475-1.302-0.744-2.013-0.826
				c-1.334-0.153-2.715,0.363-3.605,1.493c-0.489,0.621-0.763,1.343-0.834,2.076c-0.058,0.601,0.02,1.21,0.228,1.778
				c0.246,0.673,0.671,1.289,1.274,1.764c0.193,0.152,0.397,0.28,0.607,0.391c0.791,0.418,1.68,0.547,2.528,0.405
				C35.699,36.662,36.594,36.17,37.234,35.357z"/>
			<path fill="#231F20" d="M50.968,42.962c-0.87,0.191-1.684,0.665-2.277,1.418c-0.489,0.621-0.763,1.343-0.834,2.076
				c-0.015,0.154-0.02,0.309-0.017,0.464c0.008,0.447,0.091,0.892,0.245,1.314c0.246,0.673,0.671,1.289,1.274,1.764
				c0.193,0.152,0.397,0.28,0.607,0.391c0.791,0.418,1.68,0.547,2.528,0.405c0.948-0.159,1.842-0.651,2.482-1.464
				c0.489-0.621,0.762-1.343,0.833-2.076c0.022-0.226,0.025-0.454,0.009-0.68c-0.061-0.858-0.394-1.692-0.986-2.363
				c-0.157-0.178-0.33-0.346-0.523-0.498c-0.603-0.475-1.302-0.744-2.013-0.826C51.851,42.837,51.403,42.867,50.968,42.962z"/>
			<path fill="#231F20" d="M58.768,45.218l8.271-6.578c-0.757-0.414-1.428-0.972-1.972-1.655c-0.551-0.693-0.943-1.471-1.174-2.29
				l-8.264,6.574c0.759,0.414,1.431,0.972,1.974,1.654C58.148,43.607,58.537,44.389,58.768,45.218z"/>
		</symbol>
		<symbol id="local-svg-3" viewBox="27 30 66 24" class="none">
			<path fill="#231F20" d="M73.143,38.662l8.302,6.539c0.229-0.832,0.618-1.613,1.158-2.299c0.548-0.695,1.215-1.256,1.959-1.669
				L76.266,34.7c-0.228,0.834-0.617,1.616-1.157,2.301C74.568,37.688,73.896,38.247,73.143,38.662z"/>
			<path fill="#231F20" d="M73.127,35.44c0.489-0.621,0.762-1.342,0.833-2.076c0.022-0.226,0.025-0.454,0.009-0.68
				c-0.061-0.858-0.394-1.692-0.986-2.363c-0.157-0.178-0.33-0.346-0.523-0.498c-0.603-0.475-1.302-0.744-2.013-0.826
				c-1.334-0.153-2.715,0.363-3.605,1.493c-0.489,0.621-0.763,1.343-0.834,2.076c-0.058,0.601,0.02,1.21,0.228,1.778
				c0.246,0.673,0.671,1.289,1.274,1.764c0.193,0.152,0.397,0.28,0.607,0.391c0.791,0.418,1.68,0.547,2.528,0.405
				C71.593,36.745,72.487,36.252,73.127,35.44z"/>
			<path fill="#231F20" d="M86.861,43.045c-0.87,0.191-1.684,0.665-2.277,1.418c-0.489,0.621-0.763,1.343-0.834,2.076
				c-0.015,0.154-0.02,0.309-0.017,0.464c0.008,0.447,0.091,0.892,0.245,1.314c0.246,0.673,0.671,1.289,1.274,1.764
				c0.193,0.152,0.397,0.28,0.607,0.391c0.791,0.418,1.68,0.547,2.528,0.405c0.948-0.159,1.842-0.651,2.482-1.464
				c0.489-0.621,0.762-1.343,0.833-2.076c0.022-0.226,0.025-0.454,0.009-0.68c-0.061-0.858-0.394-1.692-0.986-2.363
				c-0.157-0.178-0.33-0.346-0.523-0.498c-0.603-0.475-1.302-0.744-2.013-0.826C87.745,42.919,87.296,42.949,86.861,43.045z"/>
			<path fill="#231F20" d="M37.249,38.58l8.302,6.539c0.229-0.832,0.618-1.613,1.158-2.299c0.548-0.695,1.215-1.256,1.959-1.669
				l-8.296-6.534c-0.228,0.834-0.617,1.616-1.157,2.301C38.674,37.606,38.003,38.165,37.249,38.58z"/>
			<path fill="#231F20" d="M37.234,35.357c0.489-0.621,0.762-1.342,0.833-2.076c0.022-0.226,0.025-0.454,0.009-0.68
				c-0.061-0.858-0.394-1.692-0.986-2.363c-0.157-0.178-0.33-0.346-0.523-0.498c-0.603-0.475-1.302-0.744-2.013-0.826
				c-1.334-0.153-2.715,0.363-3.605,1.493c-0.489,0.621-0.763,1.343-0.834,2.076c-0.058,0.601,0.02,1.21,0.228,1.778
				c0.246,0.673,0.671,1.289,1.274,1.764c0.193,0.152,0.397,0.28,0.607,0.391c0.791,0.418,1.68,0.547,2.528,0.405
				C35.699,36.662,36.594,36.17,37.234,35.357z"/>
			<path fill="#231F20" d="M50.968,42.962c-0.87,0.191-1.684,0.665-2.277,1.418c-0.489,0.621-0.763,1.343-0.834,2.076
				c-0.015,0.154-0.02,0.309-0.017,0.464c0.008,0.447,0.091,0.892,0.245,1.314c0.246,0.673,0.671,1.289,1.274,1.764
				c0.193,0.152,0.397,0.28,0.607,0.391c0.791,0.418,1.68,0.547,2.528,0.405c0.948-0.159,1.842-0.651,2.482-1.464
				c0.489-0.621,0.762-1.343,0.833-2.076c0.022-0.226,0.025-0.454,0.009-0.68c-0.061-0.858-0.394-1.692-0.986-2.363
				c-0.157-0.178-0.33-0.346-0.523-0.498c-0.603-0.475-1.302-0.744-2.013-0.826C51.851,42.837,51.403,42.867,50.968,42.962z"/>
			<path fill="#231F20" d="M58.768,45.218l8.271-6.578c-0.757-0.414-1.428-0.972-1.972-1.655c-0.551-0.693-0.943-1.471-1.174-2.29
				l-8.264,6.574c0.759,0.414,1.431,0.972,1.974,1.654C58.148,43.607,58.537,44.389,58.768,45.218z"/>
		</symbol>
		
		<symbol id="how-to-ride-svg" class="none" viewBox="308 24 16 34">
			<circle fill="#010101" cx="316.917" cy="49.833" r="2.667"/>
			<path fill="#010101" d="M314.75,44c0,0,2.104-1.104,4.083,0c-0.042-0.604-0.103-3.761,3.083-5.833
				c5.125-3.333,2.333-10.833-1.625-11.708c-4.888-1.081-6.625,0.292-8.792,1.792l1.604,2.771c0,0,1.062-1.521,4.146-1.438
				s5.917,3.083,1.417,6.667C314.167,39.833,314.75,44,314.75,44z"/>
		</symbol>
		<symbol id="facebook-svg" viewBox="27 79 41 41">
			<path id="Blue_1_" fill="#3D5B9A" d="M65.5,119.8c1.2,0,2.2-1,2.2-2.2V81.5c0-1.2-1-2.2-2.2-2.2H29.4c-1.2,0-2.2,1-2.2,2.2v36.1
	c0,1.2,1,2.2,2.2,2.2H65.5z"/>
<path id="f" fill="#FFFFFF" d="M55.2,119.8v-15.7h5.3l0.8-6.1h-6.1v-3.9c0-1.8,0.5-3,3-3l3.2,0v-5.5c-0.6-0.1-2.5-0.2-4.7-0.2
	c-4.7,0-7.9,2.9-7.9,8.1V98h-5.3v6.1h5.3v15.7H55.2z"/>

		</symbol>
		<symbol id="twitter-svg" viewBox="86 78 52 44"> 
				<path  fill="#55ACEE" d="M137.5,84.4c-1.8,0.8-3.8,1.4-5.8,1.6c2.1-1.3,3.7-3.2,4.5-5.6c-2,1.2-4.1,2-6.4,2.5
			c-1.8-2-4.5-3.2-7.4-3.2c-5.6,0-10.1,4.5-10.1,10.1c0,0.8,0.1,1.6,0.3,2.3c-8.4-0.4-15.9-4.5-20.9-10.6c-0.9,1.5-1.4,3.2-1.4,5.1
			c0,3.5,1.8,6.6,4.5,8.4C93,95,91.4,94.6,90,93.8c0,0,0,0.1,0,0.1c0,4.9,3.5,9,8.1,9.9c-0.9,0.2-1.7,0.4-2.7,0.4
			c-0.7,0-1.3-0.1-1.9-0.2c1.3,4,5,7,9.5,7c-3.5,2.7-7.8,4.3-12.6,4.3c-0.8,0-1.6,0-2.4-0.1c4.5,2.9,9.8,4.6,15.5,4.6
			c18.6,0,28.8-15.4,28.8-28.8c0-0.4,0-0.9,0-1.3C134.4,88.3,136.1,86.5,137.5,84.4z"/>
		</symbol>
		<symbol id="youtube-svg" viewBox="154 80 57 40">
			<path id="Triangle" fill="#FFFFFF" d="M177.2,107.4l15.3-7.9l-15.3-8V107.4z"/>
			<path id="The_Sharpness" opacity="0.12" fill="#420000" enable-background="new    " d="M177.2,91.5l13.4,8.9l1.9-1L177.2,91.5z"
				/>
			
				
					
					
					<path fill="#c0412c" d="M210.8,88.8c0,0-0.6-3.9-2.2-5.6c-2.2-2.3-4.6-2.3-5.7-2.4c-7.9-0.6-19.8-0.6-19.8-0.6l0,0
						c0,0-11.9,0-19.8,0.6c-1.1,0.1-3.5,0.1-5.7,2.4c-1.7,1.7-2.2,5.6-2.2,5.6s-0.6,4.6-0.6,9.2v4.3c0,4.6,0.6,9.2,0.6,9.2
						s0.6,3.9,2.2,5.6c2.2,2.3,5,2.2,6.2,2.4c4.5,0.4,19.2,0.6,19.2,0.6s11.9,0,19.8-0.6c1.1-0.1,3.5-0.1,5.7-2.4
						c1.7-1.7,2.2-5.6,2.2-5.6s0.6-4.6,0.6-9.2V98C211.3,93.3,210.8,88.8,210.8,88.8z M177.2,107.4V91.5l15.3,8L177.2,107.4z"/>
			
			
		</symbol>
		<symbol id="routeshout"  viewBox="259 72 107 24"> 
			<path fill="#F15D22" d="M290.3,90.5h-2.4V76.3h3.4c2.7,0,4.1,1.2,4.1,4.2c0,2.3-0.9,3.2-1.7,3.6l2.1,6.4h-2.5l-1.7-5.9
		c-0.3,0.1-0.8,0.1-1.3,0.1L290.3,90.5 M290.3,82.7h0.9c1.3,0,1.8-0.5,1.8-2.2c0-1.7-0.5-2.2-1.8-2.2h-0.9V82.7z"/>
	<path fill="#F15D22" d="M296.7,83.6c0-2.3,0.9-3.9,3.4-3.9c2.5,0,3.4,1.6,3.4,3.9v3.1c0,2.3-0.9,3.9-3.4,3.9
		c-2.5,0-3.4-1.6-3.4-3.9V83.6 M301.3,83.2c0-1.2-0.5-1.7-1.2-1.7c-0.8,0-1.2,0.5-1.2,1.7v3.9c0,1.2,0.5,1.7,1.2,1.7
		c0.8,0,1.2-0.5,1.2-1.7V83.2z"/>
	<path fill="#F15D22" d="M311.8,79.9v10.6h-2.1v-1.1c-0.9,0.8-1.4,1.3-2.7,1.3c-1.2,0-1.9-0.9-1.9-2.2v-8.5h2.2v8.2
		c0,0.6,0.3,0.8,0.8,0.8c0.5,0,0.9-0.3,1.4-0.7v-8.3L311.8,79.9"/>
	<path fill="#F15D22" d="M313.4,81.7v-1.8h1.2v-2.8h2.2v2.8h1.5v1.8h-1.5v6.1c0,0.6,0.3,0.9,0.8,0.9h0.7v1.9
		c-0.3,0.1-0.6,0.1-1.1,0.1c-1.7,0-2.6-0.8-2.6-2.4v-6.6H313.4"/>
	<path fill="#F15D22" d="M326.1,85.6h-4.6v1.5c0,1.2,0.5,1.7,1.2,1.7c0.8,0,1.2-0.5,1.2-1.7v-0.3h2.2c-0.1,2.2-1,3.8-3.4,3.8
		c-2.5,0-3.4-1.6-3.4-3.9v-3.1c0-2.3,0.9-3.9,3.4-3.9c2.5,0,3.4,1.6,3.4,3.9V85.6 M323.9,83.8v-0.6c0-1.2-0.5-1.7-1.2-1.7
		c-0.8,0-1.2,0.5-1.2,1.7v0.6H323.9z"/>
	<path fill="#F15D22" d="M332.6,79.8c-0.1-1.2-0.8-1.6-1.3-1.6c-0.8,0-1.2,0.5-1.2,1.4c0,2.4,4.9,3.6,4.9,7.4c0,2.3-1.6,3.6-3.8,3.6
		s-3.5-1.8-3.6-3.9l2.3-0.4c0.1,1.4,0.7,2.1,1.5,2.1c0.9,0,1.4-0.5,1.4-1.3c0-2.8-4.9-3.6-4.9-7.6c0-2.3,1.4-3.5,3.8-3.5
		c2,0,3.2,1.4,3.4,3.4L332.6,79.8"/>
	<path fill="#F15D22" d="M336.4,90.5V76.3h2.2v4.6c0.8-0.7,1.3-1.2,2.6-1.2c1.2,0,1.9,0.9,1.9,2.2v8.5h-2.2v-8.2
		c0-0.6-0.3-0.8-0.8-0.8c-0.5,0-0.9,0.3-1.4,0.7v8.3L336.4,90.5"/>
	<path fill="#F15D22" d="M344.2,83.6c0-2.3,0.9-3.9,3.4-3.9c2.5,0,3.4,1.6,3.4,3.9v3.1c0,2.3-0.9,3.9-3.4,3.9
		c-2.5,0-3.4-1.6-3.4-3.9V83.6 M348.9,83.2c0-1.2-0.5-1.7-1.2-1.7c-0.8,0-1.2,0.5-1.2,1.7v3.9c0,1.2,0.5,1.7,1.2,1.7
		c0.8,0,1.2-0.5,1.2-1.7V83.2z"/>
	<path fill="#F15D22" d="M359.3,79.9v10.6h-2.1v-1.1c-0.9,0.8-1.4,1.3-2.7,1.3c-1.2,0-1.9-0.9-1.9-2.2v-8.5h2.2v8.2
		c0,0.6,0.3,0.8,0.8,0.8c0.5,0,0.9-0.3,1.4-0.7v-8.3L359.3,79.9"/>
	<path fill="#F15D22" d="M361,81.7v-1.8h1.2v-2.8h2.2v2.8h1.5v1.8h-1.5v6.1c0,0.6,0.3,0.9,0.8,0.9h0.7v1.9c-0.3,0.1-0.6,0.1-1.1,0.1
		c-1.7,0-2.6-0.8-2.6-2.4v-6.6H361"/>
	<path fill="#F15D22" d="M282.8,81.8c-1.1-5.5-5.9-9.5-11.6-9.6L282.8,81.8L282.8,81.8 M270.8,76.3c-0.3-0.1-0.6,0-0.7,0.3l-7,16.1
		c-0.1,0.2-0.1,0.4,0.1,0.6l0.1,0.1l0.1,0.1c0.3,0.1,0.6,0,0.7-0.3l7-16.1C271.2,76.7,271.1,76.4,270.8,76.3z M271.3,91.5
		c0.1,0.1,0.2,0.1,0.3,0.1l3.9-2.7c0.1-0.1,0.1-0.1,0.1-0.2s0-0.1-0.1-0.2l-0.8-1.2l-4.2,2.9L271.3,91.5z M283,82.8l-0.1,0.1
		c-0.3,0.3-0.8,0.4-1.1,0.1L270,73.2c-0.3-0.2-0.4-0.6-0.2-0.9c-6.1,0.7-10.7,5.7-10.7,11.9c0,3,1.1,5.8,3,7.9l7.8-18l11,9l-4.9,3.4
		l0.8,1.2c0.3,0.4,0.4,0.8,0.3,1.2c-0.1,0.4-0.3,0.8-0.7,1.1l-3.9,2.7c-0.8,0.5-1.8,0.3-2.3-0.4l-0.8-1.2l-4.7,3.2
		c1.9,1.2,4,1.9,6.4,1.9c6.6,0,12-5.4,12-12C283,83.7,283,83.2,283,82.8z"/>
		</symbol>
		<symbol id="routeshout-2"   viewBox="259 72 107 24"> 
			<path fill="#F15D22" d="M290.3,90.5h-2.4V76.3h3.4c2.7,0,4.1,1.2,4.1,4.2c0,2.3-0.9,3.2-1.7,3.6l2.1,6.4h-2.5l-1.7-5.9
		c-0.3,0.1-0.8,0.1-1.3,0.1L290.3,90.5 M290.3,82.7h0.9c1.3,0,1.8-0.5,1.8-2.2c0-1.7-0.5-2.2-1.8-2.2h-0.9V82.7z"/>
	<path fill="#F15D22" d="M296.7,83.6c0-2.3,0.9-3.9,3.4-3.9c2.5,0,3.4,1.6,3.4,3.9v3.1c0,2.3-0.9,3.9-3.4,3.9
		c-2.5,0-3.4-1.6-3.4-3.9V83.6 M301.3,83.2c0-1.2-0.5-1.7-1.2-1.7c-0.8,0-1.2,0.5-1.2,1.7v3.9c0,1.2,0.5,1.7,1.2,1.7
		c0.8,0,1.2-0.5,1.2-1.7V83.2z"/>
	<path fill="#F15D22" d="M311.8,79.9v10.6h-2.1v-1.1c-0.9,0.8-1.4,1.3-2.7,1.3c-1.2,0-1.9-0.9-1.9-2.2v-8.5h2.2v8.2
		c0,0.6,0.3,0.8,0.8,0.8c0.5,0,0.9-0.3,1.4-0.7v-8.3L311.8,79.9"/>
	<path fill="#F15D22" d="M313.4,81.7v-1.8h1.2v-2.8h2.2v2.8h1.5v1.8h-1.5v6.1c0,0.6,0.3,0.9,0.8,0.9h0.7v1.9
		c-0.3,0.1-0.6,0.1-1.1,0.1c-1.7,0-2.6-0.8-2.6-2.4v-6.6H313.4"/>
	<path fill="#F15D22" d="M326.1,85.6h-4.6v1.5c0,1.2,0.5,1.7,1.2,1.7c0.8,0,1.2-0.5,1.2-1.7v-0.3h2.2c-0.1,2.2-1,3.8-3.4,3.8
		c-2.5,0-3.4-1.6-3.4-3.9v-3.1c0-2.3,0.9-3.9,3.4-3.9c2.5,0,3.4,1.6,3.4,3.9V85.6 M323.9,83.8v-0.6c0-1.2-0.5-1.7-1.2-1.7
		c-0.8,0-1.2,0.5-1.2,1.7v0.6H323.9z"/>
	<path fill="#F15D22" d="M332.6,79.8c-0.1-1.2-0.8-1.6-1.3-1.6c-0.8,0-1.2,0.5-1.2,1.4c0,2.4,4.9,3.6,4.9,7.4c0,2.3-1.6,3.6-3.8,3.6
		s-3.5-1.8-3.6-3.9l2.3-0.4c0.1,1.4,0.7,2.1,1.5,2.1c0.9,0,1.4-0.5,1.4-1.3c0-2.8-4.9-3.6-4.9-7.6c0-2.3,1.4-3.5,3.8-3.5
		c2,0,3.2,1.4,3.4,3.4L332.6,79.8"/>
	<path fill="#F15D22" d="M336.4,90.5V76.3h2.2v4.6c0.8-0.7,1.3-1.2,2.6-1.2c1.2,0,1.9,0.9,1.9,2.2v8.5h-2.2v-8.2
		c0-0.6-0.3-0.8-0.8-0.8c-0.5,0-0.9,0.3-1.4,0.7v8.3L336.4,90.5"/>
	<path fill="#F15D22" d="M344.2,83.6c0-2.3,0.9-3.9,3.4-3.9c2.5,0,3.4,1.6,3.4,3.9v3.1c0,2.3-0.9,3.9-3.4,3.9
		c-2.5,0-3.4-1.6-3.4-3.9V83.6 M348.9,83.2c0-1.2-0.5-1.7-1.2-1.7c-0.8,0-1.2,0.5-1.2,1.7v3.9c0,1.2,0.5,1.7,1.2,1.7
		c0.8,0,1.2-0.5,1.2-1.7V83.2z"/>
	<path fill="#F15D22" d="M359.3,79.9v10.6h-2.1v-1.1c-0.9,0.8-1.4,1.3-2.7,1.3c-1.2,0-1.9-0.9-1.9-2.2v-8.5h2.2v8.2
		c0,0.6,0.3,0.8,0.8,0.8c0.5,0,0.9-0.3,1.4-0.7v-8.3L359.3,79.9"/>
	<path fill="#F15D22" d="M361,81.7v-1.8h1.2v-2.8h2.2v2.8h1.5v1.8h-1.5v6.1c0,0.6,0.3,0.9,0.8,0.9h0.7v1.9c-0.3,0.1-0.6,0.1-1.1,0.1
		c-1.7,0-2.6-0.8-2.6-2.4v-6.6H361"/>
	<path fill="#F15D22" d="M282.8,81.8c-1.1-5.5-5.9-9.5-11.6-9.6L282.8,81.8L282.8,81.8 M270.8,76.3c-0.3-0.1-0.6,0-0.7,0.3l-7,16.1
		c-0.1,0.2-0.1,0.4,0.1,0.6l0.1,0.1l0.1,0.1c0.3,0.1,0.6,0,0.7-0.3l7-16.1C271.2,76.7,271.1,76.4,270.8,76.3z M271.3,91.5
		c0.1,0.1,0.2,0.1,0.3,0.1l3.9-2.7c0.1-0.1,0.1-0.1,0.1-0.2s0-0.1-0.1-0.2l-0.8-1.2l-4.2,2.9L271.3,91.5z M283,82.8l-0.1,0.1
		c-0.3,0.3-0.8,0.4-1.1,0.1L270,73.2c-0.3-0.2-0.4-0.6-0.2-0.9c-6.1,0.7-10.7,5.7-10.7,11.9c0,3,1.1,5.8,3,7.9l7.8-18l11,9l-4.9,3.4
		l0.8,1.2c0.3,0.4,0.4,0.8,0.3,1.2c-0.1,0.4-0.3,0.8-0.7,1.1l-3.9,2.7c-0.8,0.5-1.8,0.3-2.3-0.4l-0.8-1.2l-4.7,3.2
		c1.9,1.2,4,1.9,6.4,1.9c6.6,0,12-5.4,12-12C283,83.7,283,83.2,283,82.8z"/>
		</symbol>
		
		
	 </defs>
</svg>